<svg width="24" height="25" viewBox="0 0 24 25" fill="none" xmlns="http://www.w3.org/2000/svg">
<path d="M12.39 3.15204C12.2813 3.05392 12.143 3 12 3C11.857 3 11.7187 3.05392 11.61 3.15204L3 10.942V20.1C3 20.6039 3.18964 21.0872 3.52721 21.4435C3.86477 21.7998 4.32261 22 4.8 22H9.6C9.75913 22 9.91174 21.9333 10.0243 21.8145C10.1368 21.6957 10.2 21.5346 10.2 21.3667V17.5667C10.2 17.0628 10.3896 16.5795 10.7272 16.2232C11.0648 15.8669 11.5226 15.6667 12 15.6667C12.4774 15.6667 12.9352 15.8669 13.2728 16.2232C13.6104 16.5795 13.8 17.0628 13.8 17.5667V21.3667C13.8 21.5346 13.8632 21.6957 13.9757 21.8145C14.0883 21.9333 14.2409 22 14.4 22H19.2C19.6774 22 20.1352 21.7998 20.4728 21.4435C20.8104 21.0872 21 20.6039 21 20.1V10.942L12.39 3.15204Z" fill="#FFFFFF"/>
</svg>
