<svg width="23" height="24" viewBox="0 0 23 24" fill="none" xmlns="http://www.w3.org/2000/svg">
<path d="M21.7741 18.6444C21.089 18.0335 20.4891 17.3333 19.9907 16.5625C19.4466 15.4985 19.1205 14.3366 19.0315 13.1449V9.63488C19.0362 7.76308 18.3572 5.95398 17.1221 4.54749C15.8871 3.14101 14.1809 2.23394 12.3241 1.99672V1.08014C12.3241 0.828573 12.2242 0.587305 12.0463 0.409417C11.8684 0.231528 11.6272 0.131592 11.3756 0.131592C11.124 0.131592 10.8828 0.231528 10.7049 0.409417C10.527 0.587305 10.427 0.828573 10.427 1.08014V2.01093C8.58696 2.26525 6.90139 3.1778 5.68252 4.57956C4.46365 5.98133 3.79409 7.77731 3.79783 9.63488V13.1449C3.70884 14.3366 3.38273 15.4985 2.83862 16.5625C2.34898 17.3316 1.75876 18.0317 1.08362 18.6444C1.00783 18.7109 0.947086 18.7929 0.905432 18.8848C0.863778 18.9767 0.842169 19.0764 0.842041 19.1772V20.1436C0.842041 20.332 0.9169 20.5127 1.05015 20.646C1.1834 20.7792 1.36412 20.8541 1.55257 20.8541H21.3052C21.4936 20.8541 21.6744 20.7792 21.8076 20.646C21.9409 20.5127 22.0157 20.332 22.0157 20.1436V19.1772C22.0156 19.0764 21.994 18.9767 21.9523 18.8848C21.9107 18.7929 21.8499 18.7109 21.7741 18.6444ZM2.31994 19.433C2.98102 18.7944 3.56307 18.0788 4.05362 17.3015C4.739 16.0165 5.1389 14.5986 5.22599 13.1449V9.63488C5.19781 8.80217 5.33749 7.9723 5.6367 7.1947C5.93592 6.41709 6.38856 5.70765 6.96766 5.10862C7.54677 4.50958 8.2405 4.03321 9.00754 3.70787C9.77458 3.38252 10.5992 3.21486 11.4324 3.21486C12.2656 3.21486 13.0903 3.38252 13.8573 3.70787C14.6244 4.03321 15.3181 4.50958 15.8972 5.10862C16.4763 5.70765 16.9289 6.41709 17.2282 7.1947C17.5274 7.9723 17.6671 8.80217 17.6389 9.63488V13.1449C17.726 14.5986 18.1259 16.0165 18.8113 17.3015C19.3018 18.0788 19.8839 18.7944 20.5449 19.433H2.31994Z" fill="white"/>
<path d="M11.4645 23.2273C11.9121 23.217 12.3416 23.0487 12.6771 22.7523C13.0126 22.4558 13.2324 22.0502 13.2977 21.6073H9.5603C9.62743 22.0623 9.85753 22.4773 10.2078 22.7753C10.5581 23.0733 11.0047 23.2339 11.4645 23.2273Z" fill="white"/>
<circle cx="17.5" cy="4.5" r="4.5" fill="#EB5757"/>
</svg>
