<svg width="25" height="24" viewBox="0 0 25 24" fill="none" xmlns="http://www.w3.org/2000/svg">
<path d="M1.75 17.6248C1.75 18.3209 2.02656 18.9886 2.51884 19.4809C3.01113 19.9732 3.67881 20.2498 4.375 20.2498H20.125C20.8212 20.2498 21.4889 19.9732 21.9812 19.4809C22.4734 18.9886 22.75 18.3209 22.75 17.6248V10.406H1.75V17.6248ZM4.84375 14.0623C4.84375 13.6893 4.99191 13.3316 5.25563 13.0679C5.51935 12.8042 5.87704 12.656 6.25 12.656H8.5C8.87296 12.656 9.23065 12.8042 9.49437 13.0679C9.75809 13.3316 9.90625 13.6893 9.90625 14.0623V14.9998C9.90625 15.3727 9.75809 15.7304 9.49437 15.9941C9.23065 16.2578 8.87296 16.406 8.5 16.406H6.25C5.87704 16.406 5.51935 16.2578 5.25563 15.9941C4.99191 15.7304 4.84375 15.3727 4.84375 14.9998V14.0623ZM20.125 3.74976H4.375C3.67881 3.74976 3.01113 4.02632 2.51884 4.5186C2.02656 5.01088 1.75 5.67856 1.75 6.37476V7.59351H22.75V6.37476C22.75 5.67856 22.4734 5.01088 21.9812 4.5186C21.4889 4.02632 20.8212 3.74976 20.125 3.74976Z" fill="white"/>
</svg>
