<svg width="55" height="55" viewBox="0 0 55 55" fill="none" xmlns="http://www.w3.org/2000/svg">
<path d="M27.5 3.4375C14.2119 3.4375 3.4375 14.2119 3.4375 27.5C3.4375 40.7881 14.2119 51.5625 27.5 51.5625C40.7881 51.5625 51.5625 40.7881 51.5625 27.5C51.5625 14.2119 40.7881 3.4375 27.5 3.4375ZM35.2397 27.8706L23.5093 36.4053C23.445 36.4515 23.3692 36.4791 23.2902 36.485C23.2112 36.4909 23.1321 36.475 23.0617 36.4389C22.9912 36.4028 22.932 36.348 22.8906 36.2805C22.8492 36.213 22.8273 36.1353 22.8271 36.0562V18.9976C22.8269 18.9182 22.8486 18.8403 22.8899 18.7726C22.9312 18.7048 22.9904 18.6498 23.0611 18.6136C23.1317 18.5775 23.211 18.5616 23.2901 18.5678C23.3692 18.5739 23.4451 18.6018 23.5093 18.6484L35.2397 27.1777C35.2952 27.2169 35.3404 27.2688 35.3716 27.3291C35.4028 27.3894 35.4191 27.4563 35.4191 27.5242C35.4191 27.592 35.4028 27.6589 35.3716 27.7192C35.3404 27.7795 35.2952 27.8314 35.2397 27.8706Z" fill="white" fill-opacity="0.44"/>
</svg>
