<svg width="25" height="24" viewBox="0 0 25 24" fill="none" xmlns="http://www.w3.org/2000/svg">
<g clip-path="url(#clip0_302_477)">
<path fill-rule="evenodd" clip-rule="evenodd" d="M12.25 1.99976C17.773 1.99976 22.25 6.47676 22.25 11.9998C22.25 17.5228 17.773 21.9998 12.25 21.9998C6.727 21.9998 2.25 17.5228 2.25 11.9998C2.25 6.47676 6.727 1.99976 12.25 1.99976ZM4.321 13.0708C4.55601 14.8069 5.35416 16.418 6.59298 17.6568C7.8318 18.8956 9.44287 19.6937 11.179 19.9288C10.9441 18.1923 10.1459 16.5809 8.9069 15.3419C7.66786 14.1028 6.05646 13.3046 4.32 13.0698L4.321 13.0708ZM20.179 13.0708C18.4429 13.3058 16.8318 14.1039 15.593 15.3427C14.3542 16.5816 13.556 18.1926 13.321 19.9288C15.0571 19.6937 16.6682 18.8956 17.907 17.6568C19.1458 16.418 19.944 14.8069 20.179 13.0708ZM12.25 7.36376C11.2669 9.38424 9.63448 11.0166 7.614 11.9998C9.63448 12.9829 11.2669 14.6153 12.25 16.6358C13.2331 14.6153 14.8655 12.9829 16.886 11.9998C14.8655 11.0166 13.2331 9.38424 12.25 7.36376ZM11.179 4.07076C9.44261 4.30577 7.83129 5.10403 6.59228 6.34304C5.35327 7.58205 4.55502 9.19336 4.32 10.9298C6.05678 10.6951 7.66853 9.89679 8.90778 8.65754C10.147 7.41828 10.9453 5.80654 11.18 4.06976L11.179 4.07076ZM13.321 4.07076C13.556 5.80688 14.3542 7.41795 15.593 8.65678C16.8318 9.8956 18.4429 10.6937 20.179 10.9288C19.9441 9.1923 19.1459 7.58089 17.9069 6.34185C16.6679 5.10282 15.0565 4.30461 13.32 4.06976L13.321 4.07076Z" fill="white"/>
</g>
<defs>
<clipPath id="clip0_302_477">
<rect width="24" height="24" fill="white" transform="translate(0.25 -0.000244141)"/>
</clipPath>
</defs>
</svg>
