<svg width="25" height="25" viewBox="0 0 25 25" fill="none" xmlns="http://www.w3.org/2000/svg">
<g clip-path="url(#clip0_302_593)">
<path d="M12.3333 2.5C17.8563 2.5 22.3333 6.977 22.3333 12.5C22.3345 14.0526 21.9738 15.5841 21.2796 16.9728C20.5854 18.3615 19.5769 19.5692 18.3343 20.5H20.3333C20.5985 20.5 20.8528 20.6054 21.0404 20.7929C21.2279 20.9804 21.3333 21.2348 21.3333 21.5C21.3333 21.7652 21.2279 22.0196 21.0404 22.2071C20.8528 22.3946 20.5985 22.5 20.3333 22.5H12.3333C6.81025 22.5 2.33325 18.023 2.33325 12.5C2.33325 6.977 6.81025 2.5 12.3333 2.5ZM12.3333 14.5C11.8028 14.5 11.2941 14.7107 10.919 15.0858C10.544 15.4609 10.3333 15.9696 10.3333 16.5C10.3333 17.0304 10.544 17.5391 10.919 17.9142C11.2941 18.2893 11.8028 18.5 12.3333 18.5C12.8637 18.5 13.3724 18.2893 13.7475 17.9142C14.1225 17.5391 14.3333 17.0304 14.3333 16.5C14.3333 15.9696 14.1225 15.4609 13.7475 15.0858C13.3724 14.7107 12.8637 14.5 12.3333 14.5ZM8.33325 10.5C7.80282 10.5 7.29411 10.7107 6.91904 11.0858C6.54397 11.4609 6.33325 11.9696 6.33325 12.5C6.33325 13.0304 6.54397 13.5391 6.91904 13.9142C7.29411 14.2893 7.80282 14.5 8.33325 14.5C8.86369 14.5 9.37239 14.2893 9.74747 13.9142C10.1225 13.5391 10.3333 13.0304 10.3333 12.5C10.3333 11.9696 10.1225 11.4609 9.74747 11.0858C9.37239 10.7107 8.86369 10.5 8.33325 10.5ZM16.3333 10.5C15.8028 10.5 15.2941 10.7107 14.919 11.0858C14.544 11.4609 14.3333 11.9696 14.3333 12.5C14.3333 13.0304 14.544 13.5391 14.919 13.9142C15.2941 14.2893 15.8028 14.5 16.3333 14.5C16.8637 14.5 17.3724 14.2893 17.7475 13.9142C18.1225 13.5391 18.3333 13.0304 18.3333 12.5C18.3333 11.9696 18.1225 11.4609 17.7475 11.0858C17.3724 10.7107 16.8637 10.5 16.3333 10.5ZM12.3333 6.5C11.8028 6.5 11.2941 6.71071 10.919 7.08579C10.544 7.46086 10.3333 7.96957 10.3333 8.5C10.3333 9.03043 10.544 9.53914 10.919 9.91421C11.2941 10.2893 11.8028 10.5 12.3333 10.5C12.8637 10.5 13.3724 10.2893 13.7475 9.91421C14.1225 9.53914 14.3333 9.03043 14.3333 8.5C14.3333 7.96957 14.1225 7.46086 13.7475 7.08579C13.3724 6.71071 12.8637 6.5 12.3333 6.5Z" fill="white"/>
</g>
<defs>
<clipPath id="clip0_302_593">
<rect width="24" height="24" fill="white" transform="translate(0.333252 0.5)"/>
</clipPath>
</defs>
</svg>
