<svg width="25" height="25" viewBox="0 0 25 25" fill="none" xmlns="http://www.w3.org/2000/svg">
<path fill-rule="evenodd" clip-rule="evenodd" d="M14.6748 19.503L14.6808 17.5C14.6808 17.2341 14.7864 16.9791 14.9744 16.7911C15.1624 16.6031 15.4174 16.4975 15.6833 16.4975C15.9491 16.4975 16.2041 16.6031 16.3921 16.7911C16.5801 16.9791 16.6858 17.2341 16.6858 17.5V19.477C16.6858 19.958 16.6858 20.199 16.8398 20.347C16.9948 20.494 17.2298 20.484 17.7028 20.464C19.5658 20.385 20.7108 20.134 21.5168 19.328C22.3268 18.522 22.5778 17.377 22.6568 15.511C22.6718 15.141 22.6798 14.955 22.6108 14.832C22.5408 14.709 22.2658 14.555 21.7138 14.246C21.4028 14.0727 21.1438 13.8194 20.9635 13.5125C20.7832 13.2055 20.6881 12.856 20.6881 12.5C20.6881 12.144 20.7832 11.7945 20.9635 11.4875C21.1438 11.1806 21.4028 10.9273 21.7138 10.754C22.2658 10.446 22.5418 10.291 22.6108 10.168C22.6798 10.045 22.6718 9.86 22.6558 9.489C22.5778 7.623 22.3258 6.479 21.5168 5.672C20.6398 4.796 19.3618 4.575 17.1948 4.519C17.1284 4.51726 17.0624 4.52884 17.0006 4.55303C16.9388 4.57723 16.8824 4.61357 16.8349 4.65989C16.7874 4.70622 16.7496 4.76159 16.7238 4.82275C16.698 4.88392 16.6847 4.94962 16.6848 5.016V7.5C16.6848 7.76588 16.5791 8.02087 16.3911 8.20887C16.2031 8.39688 15.9481 8.5025 15.6823 8.5025C15.4164 8.5025 15.1614 8.39688 14.9734 8.20887C14.7854 8.02087 14.6798 7.76588 14.6798 7.5L14.6728 4.999C14.6725 4.86657 14.6197 4.73964 14.526 4.64609C14.4322 4.55254 14.3052 4.5 14.1728 4.5H10.6608C6.88076 4.5 4.99076 4.5 3.81576 5.672C3.00576 6.478 2.75476 7.623 2.67576 9.489C2.66076 9.859 2.65276 10.045 2.72176 10.168C2.79176 10.291 3.06676 10.446 3.61876 10.754C3.92969 10.9273 4.1887 11.1806 4.369 11.4875C4.5493 11.7945 4.64437 12.144 4.64437 12.5C4.64437 12.856 4.5493 13.2055 4.369 13.5125C4.1887 13.8194 3.92969 14.0727 3.61876 14.246C3.06676 14.555 2.79076 14.709 2.72176 14.832C2.65276 14.955 2.66076 15.14 2.67676 15.51C2.75476 17.377 3.00676 18.522 3.81576 19.328C4.99076 20.5 6.88076 20.5 10.6618 20.5H13.6718C14.1438 20.5 14.3788 20.5 14.5258 20.354C14.6728 20.208 14.6738 19.974 14.6748 19.503ZM16.6848 13.5V11.5C16.6848 11.2341 16.5791 10.9791 16.3911 10.7911C16.2031 10.6031 15.9481 10.4975 15.6823 10.4975C15.4164 10.4975 15.1614 10.6031 14.9734 10.7911C14.7854 10.9791 14.6798 11.2341 14.6798 11.5V13.5C14.6798 13.766 14.7854 14.0211 14.9735 14.2092C15.1616 14.3973 15.4167 14.503 15.6828 14.503C15.9488 14.503 16.2039 14.3973 16.392 14.2092C16.5801 14.0211 16.6848 13.766 16.6848 13.5Z" fill="white"/>
</svg>
