<svg width="24" height="25" viewBox="0 0 24 25" fill="none" xmlns="http://www.w3.org/2000/svg">
<path d="M21.9731 20.1875C20.6878 17.9316 18.6807 16.1738 16.275 15.1972C17.4713 14.2999 18.355 13.049 18.8009 11.6216C19.2468 10.1942 19.2322 8.66274 18.7593 7.24407C18.2865 5.8254 17.3792 4.59148 16.166 3.71709C14.9529 2.84271 13.4954 2.37219 12 2.37219C10.5046 2.37219 9.04706 2.84271 7.83392 3.71709C6.62078 4.59148 5.7135 5.8254 5.24061 7.24407C4.76772 8.66274 4.75319 10.1942 5.19907 11.6216C5.64496 13.049 6.52865 14.2999 7.72498 15.1972C5.31928 16.1738 3.31221 17.9316 2.02686 20.1875C1.94721 20.3156 1.89413 20.4583 1.87076 20.6073C1.8474 20.7563 1.85423 20.9085 1.89084 21.0548C1.92746 21.2011 1.99312 21.3385 2.08392 21.4589C2.17472 21.5794 2.2888 21.6803 2.41938 21.7557C2.54996 21.8312 2.69438 21.8796 2.84405 21.8981C2.99373 21.9166 3.14559 21.9049 3.29062 21.8635C3.43566 21.8222 3.57089 21.7521 3.6883 21.6574C3.8057 21.5628 3.90288 21.4455 3.97404 21.3125C5.67279 18.3763 8.67279 16.625 12 16.625C15.3272 16.625 18.3272 18.3772 20.0259 21.3125C20.1802 21.5605 20.4248 21.7388 20.7081 21.8097C20.9914 21.8806 21.2912 21.8386 21.544 21.6925C21.7969 21.5464 21.9831 21.3077 22.0631 21.0268C22.1432 20.746 22.1109 20.445 21.9731 20.1875ZM7.12498 9.5C7.12498 8.53582 7.41089 7.59329 7.94657 6.7916C8.48224 5.98991 9.24361 5.36507 10.1344 4.99609C11.0252 4.62712 12.0054 4.53057 12.951 4.71868C13.8967 4.90678 14.7653 5.37108 15.4471 6.05286C16.1289 6.73464 16.5932 7.60328 16.7813 8.54894C16.9694 9.4946 16.8729 10.4748 16.5039 11.3656C16.1349 12.2564 15.5101 13.0177 14.7084 13.5534C13.9067 14.0891 12.9642 14.375 12 14.375C10.7075 14.3735 9.4684 13.8594 8.55448 12.9455C7.64056 12.0316 7.12647 10.7925 7.12498 9.5Z" fill="white"/>
</svg>
