<svg width="25" height="24" viewBox="0 0 25 24" fill="none" xmlns="http://www.w3.org/2000/svg">
<g clip-path="url(#clip0_302_481)">
<path d="M19.75 3.99976C20.5152 3.99971 21.2515 4.29208 21.8083 4.81704C22.365 5.342 22.7001 6.05986 22.745 6.82376L22.75 6.99976V8.81676C22.7477 9.08684 22.675 9.35165 22.5388 9.58493C22.4027 9.81822 22.208 10.0119 21.974 10.1468L21.867 10.2048C21.5435 10.3636 21.2689 10.6068 21.0722 10.9089C20.8756 11.2109 20.7642 11.5604 20.7498 11.9205C20.7355 12.2807 20.8187 12.638 20.9907 12.9547C21.1627 13.2714 21.4171 13.5357 21.727 13.7198L21.867 13.7948C22.3 14.0088 22.687 14.4508 22.743 15.0348L22.75 15.1828V16.9998C22.75 17.765 22.4577 18.5013 21.9327 19.058C21.4078 19.6148 20.6899 19.9499 19.926 19.9948L19.75 19.9998H5.75C4.98479 19.9998 4.24849 19.7074 3.69174 19.1825C3.13499 18.6575 2.79989 17.9396 2.755 17.1758L2.75 16.9998V15.1828C2.75 14.5768 3.102 14.1048 3.526 13.8528L3.633 13.7948C3.95653 13.636 4.23114 13.3927 4.42779 13.0907C4.62445 12.7886 4.73583 12.4391 4.75017 12.079C4.76452 11.7188 4.68129 11.3615 4.50928 11.0448C4.33727 10.7281 4.08288 10.4638 3.773 10.2798L3.633 10.2048C3.2 9.99076 2.813 9.54876 2.757 8.96476L2.75 8.81776V6.99976C2.74996 6.23454 3.04233 5.49824 3.56728 4.94149C4.09224 4.38475 4.81011 4.04965 5.574 4.00476L5.75 3.99976H19.75ZM10.75 8.99976C10.4848 8.99976 10.2304 9.10511 10.0429 9.29265C9.85536 9.48019 9.75 9.73454 9.75 9.99976V13.9998C9.75 14.265 9.85536 14.5193 10.0429 14.7069C10.2304 14.8944 10.4848 14.9998 10.75 14.9998C11.0152 14.9998 11.2696 14.8944 11.4571 14.7069C11.6446 14.5193 11.75 14.265 11.75 13.9998V9.99976C11.75 9.73454 11.6446 9.48019 11.4571 9.29265C11.2696 9.10511 11.0152 8.99976 10.75 8.99976Z" fill="white"/>
</g>
<defs>
<clipPath id="clip0_302_481">
<rect width="24" height="24" fill="white" transform="translate(0.75 -0.000244141)"/>
</clipPath>
</defs>
</svg>
