<svg width="25" height="24" viewBox="0 0 25 24" fill="none" xmlns="http://www.w3.org/2000/svg">
<path fill-rule="evenodd" clip-rule="evenodd" d="M21.8501 8.00376C21.7951 7.99976 21.7341 7.99976 21.6701 7.99976H19.1451C17.0771 7.99976 15.3081 9.62776 15.3081 11.7498C15.3081 13.8718 17.0781 15.4998 19.1451 15.4998H21.6701C21.7341 15.4998 21.7951 15.4998 21.8521 15.4958C22.2771 15.4701 22.6783 15.2909 22.981 14.9913C23.2836 14.6918 23.4671 14.2925 23.4971 13.8678C23.5011 13.8078 23.5011 13.7428 23.5011 13.6828V9.81676C23.5011 9.75676 23.5011 9.69176 23.4971 9.63176C23.4671 9.20702 23.2836 8.80769 22.981 8.50817C22.6783 8.20866 22.2771 8.02938 21.8521 8.00376H21.8501ZM18.9221 12.7498C19.4541 12.7498 19.8851 12.3018 19.8851 11.7498C19.8851 11.1978 19.4541 10.7498 18.9221 10.7498C18.3891 10.7498 17.9581 11.1978 17.9581 11.7498C17.9581 12.3018 18.3891 12.7498 18.9221 12.7498Z" fill="white"/>
<path fill-rule="evenodd" clip-rule="evenodd" d="M21.668 16.9998C21.7026 16.9984 21.737 17.0052 21.7684 17.0196C21.7999 17.034 21.8275 17.0556 21.849 17.0827C21.8706 17.1098 21.8854 17.1415 21.8924 17.1754C21.8993 17.2093 21.8981 17.2444 21.889 17.2778C21.689 17.9898 21.37 18.5978 20.859 19.1078C20.11 19.8578 19.161 20.1888 17.989 20.3468C16.849 20.4998 15.394 20.4998 13.556 20.4998H11.444C9.606 20.4998 8.15 20.4998 7.011 20.3468C5.839 20.1888 4.89 19.8568 4.141 19.1088C3.393 18.3598 3.061 17.4108 2.903 16.2388C2.75 15.0988 2.75 13.6438 2.75 11.8058V11.6938C2.75 9.85576 2.75 8.39976 2.903 7.25976C3.061 6.08776 3.393 5.13876 4.141 4.38976C4.89 3.64176 5.839 3.30976 7.011 3.15176C8.151 2.99976 9.606 2.99976 11.444 2.99976H13.556C15.394 2.99976 16.85 2.99976 17.989 3.15276C19.161 3.31076 20.11 3.64276 20.859 4.39076C21.37 4.90276 21.689 5.50976 21.889 6.22176C21.8981 6.25512 21.8993 6.29018 21.8924 6.32408C21.8854 6.35797 21.8706 6.38975 21.849 6.41684C21.8275 6.44392 21.7999 6.46554 21.7684 6.47995C21.737 6.49436 21.7026 6.50114 21.668 6.49976H19.144C16.307 6.49976 13.807 8.73976 13.807 11.7498C13.807 14.7598 16.307 16.9998 19.144 16.9998H21.668ZM6.5 6.99976C6.30109 6.99976 6.11032 7.07877 5.96967 7.21943C5.82902 7.36008 5.75 7.55084 5.75 7.74976C5.75 7.94867 5.82902 8.13943 5.96967 8.28009C6.11032 8.42074 6.30109 8.49976 6.5 8.49976H10.5C10.6989 8.49976 10.8897 8.42074 11.0303 8.28009C11.171 8.13943 11.25 7.94867 11.25 7.74976C11.25 7.55084 11.171 7.36008 11.0303 7.21943C10.8897 7.07877 10.6989 6.99976 10.5 6.99976H6.5Z" fill="white"/>
</svg>
